name C:\Users\Nicos\Desktop\Gil_twoSteps\Study2\ExperimentalData\IK_Splined\twoSteps_IK_BSplines_100_meshInts_study2_p02_s_01_lowIK_modROI.mot
datacolumns 38
datarows 15
range 0.54600000 0.56189198
endheader
                time	         pelvis_tilt	         pelvis_list	     pelvis_rotation	           pelvis_tx	           pelvis_ty	           pelvis_tz	       hip_flexion_r	     hip_adduction_r	      hip_rotation_r	        knee_angle_r	       ankle_angle_r	    subtalar_angle_r	         mtp_angle_r	       hip_flexion_l	     hip_adduction_l	      hip_rotation_l	        knee_angle_l	       ankle_angle_l	    subtalar_angle_l	         mtp_angle_l	    lumbar_extension	      lumbar_bending	     lumbar_rotation	          arm_flex_r	           arm_add_r	           arm_rot_r	        elbow_flex_r	           pro_sup_r	        wrist_flex_r	         wrist_dev_r	          arm_flex_l	           arm_add_l	           arm_rot_l	        elbow_flex_l	           pro_sup_l	        wrist_flex_l	         wrist_dev_l	
          0.54600000	        -23.02962154	         12.59631214	         -7.18848114	         -0.28944903	          0.87243051	          0.35078193	        -11.56241403	        -16.62961308	          0.60272703	        -25.42448742	        -42.84411673	        -15.77141484	         -5.81075054	         88.25109563	          0.78846100	        -11.20146757	        -86.13282818	          6.55501151	        -14.41185484	          7.20556840	        -14.99081715	        -23.77552499	         -7.01003057	         55.87174307	        -12.95371842	         24.68068603	        141.30306512	         60.42123162	        -18.61079799	         10.24977880	        -76.16665824	          4.61032911	        -44.92490511	         52.76275604	         63.41382762	          1.35335098	         25.46600430	
          0.54667602	        -23.01302269	         12.47559086	         -7.05082279	         -0.28567661	          0.87289349	          0.35086448	        -11.50381138	        -16.41495495	          0.43097566	        -25.84719555	        -42.82132754	        -15.88599764	         -5.90973921	         88.04854135	          0.81830285	        -11.14314828	        -85.83651745	          6.56135289	        -14.38700657	          7.19879644	        -15.09852565	        -23.71087745	         -7.10368507	         55.30049215	        -13.14875572	         24.61098462	        141.48538208	         60.37029103	        -18.64518568	         10.26267545	        -75.91138461	          4.59564186	        -44.94434972	         52.82278146	         63.40383641	          1.36601740	         25.45627165	
          0.54881198	        -22.94320636	         12.09176782	         -6.61929874	         -0.27375410	          0.87436810	          0.35113733	        -11.30481380	        -15.73585873	         -0.10129765	        -27.22743912	        -42.69309946	        -16.19728054	         -6.14052121	         87.37311386	          0.91417986	        -10.95846691	        -84.91059440	          6.57341024	        -14.29905945	          7.18408456	        -15.46937192	        -23.50324766	         -7.37921933	         53.44374701	        -13.76702612	         24.33013210	        142.02912549	         60.21034513	        -18.75696589	         10.30781309	        -75.08128738	          4.51129707	        -44.98502328	         53.03766876	         63.39123515	          1.40416407	         25.42331841	
          0.55036000	        -22.86241117	         11.80943405	         -6.31249922	         -0.26510775	          0.87545733	          0.35135596	        -11.13653775	        -15.24218506	         -0.46899713	        -28.30539475	        -42.50243159	        -16.33465748	         -6.16526774	         86.82199711	          0.98642830	        -10.82389647	        -84.25743758	          6.56827888	        -14.21891607	          7.18504255	        -15.79121447	        -23.34691094	         -7.54349159	         52.00799069	        -14.21864694	         24.02120016	        142.36704604	         60.09617312	        -18.84341751	         10.34815672	        -74.43876397	          4.38421792	        -44.97840740	         53.23726788	         63.41507319	          1.42855300	         25.39560785	
          0.55036000	        -22.86241117	         11.80943405	         -6.31249922	         -0.26510775	          0.87545733	          0.35135596	        -11.13653775	        -15.24218506	         -0.46899713	        -28.30539475	        -42.50243159	        -16.33465748	         -6.16526774	         86.82199711	          0.98642830	        -10.82389647	        -84.25743758	          6.56827888	        -14.21891607	          7.18504255	        -15.79121447	        -23.34691094	         -7.54349159	         52.00799069	        -14.21864694	         24.02120016	        142.36704604	         60.09617312	        -18.84341751	         10.34815672	        -74.43876397	          4.38421792	        -44.97840740	         53.23726788	         63.41507319	          1.42855300	         25.39560785	
          0.55103602	        -22.82712786	         11.68613870	         -6.17851966	         -0.26133187	          0.87593299	          0.35145143	        -11.06305149	        -15.02659744	         -0.62957175	        -28.77613872	        -42.41916680	        -16.39465008	         -6.17607457	         86.58132405	          1.01797924	        -10.76512947	        -83.97220354	          6.56603801	        -14.18391740	          7.18546090	        -15.93176333	        -23.27863858	         -7.61522940	         51.38099492	        -14.41587006	         23.88628937	        142.51461618	         60.04631412	        -18.88117099	         10.36577481	        -74.15817355	          4.32872237	        -44.97551825	         53.32443296	         63.42548328	          1.43920366	         25.38350662	
          0.55317198	        -22.70232180	         11.30012459	         -5.75881116	         -0.24939525	          0.87744455	          0.35175918	        -10.81703329	        -14.35404528	         -1.13088722	        -30.29649298	        -42.13401768	        -16.54357290	         -6.16153030	         85.79122624	          1.11952117	        -10.58222903	        -83.08092593	          6.55123908	        -14.07153262	          7.19179766	        -16.40050610	        -23.06280098	         -7.81786236	         49.34714144	        -15.03234469	         23.38977866	        142.94468970	         59.88872792	        -19.00842100	         10.42829561	        -73.24850876	          4.11243598	        -44.93777108	         53.62201921	         63.47567669	          1.47288525	         25.34329087	
          0.55472000	        -22.58833742	         11.02663001	         -5.46100864	         -0.24073293	          0.87855531	          0.35199297	        -10.61430674	        -13.88183340	         -1.48355582	        -31.45663082	        -41.88838892	        -16.57975406	         -6.06500561	         85.16621217	          1.19638696	        -10.45458098	        -82.45254042	          6.52688267	        -13.98689784	          7.20524638	        -16.78378380	        -22.90615332	         -7.92228479	         47.77986872	        -15.46735264	         22.90588016	        143.19247683	         59.77442607	        -19.11470966	         10.48571263	        -72.54841602	          3.88337948	        -44.85987458	         53.87686273	         63.54260843	          1.49734850	         25.31064666	
          0.55472000	        -22.58833742	         11.02663001	         -5.46100864	         -0.24073293	          0.87855531	          0.35199297	        -10.61430674	        -13.88183340	         -1.48355582	        -31.45663082	        -41.88838892	        -16.57975406	         -6.06500561	         85.16621217	          1.19638696	        -10.45458098	        -82.45254042	          6.52688267	        -13.98689784	          7.20524638	        -16.78378380	        -22.90615332	         -7.92228479	         47.77986872	        -15.46735264	         22.90588016	        143.19247683	         59.77442607	        -19.11470966	         10.48571263	        -72.54841602	          3.88337948	        -44.85987458	         53.87686273	         63.54260843	          1.49734850	         25.31064666	
          0.55539602	        -22.53856036	         10.90719474	         -5.33095808	         -0.23695008	          0.87904037	          0.35209507	        -10.52577592	        -13.67561815	         -1.63756644	        -31.96326381	        -41.78112267	        -16.59555439	         -6.02285322	         84.89326809	          1.22995431	        -10.39883699	        -82.17812405	          6.51624621	        -13.94993777	          7.21111945	        -16.95116143	        -22.83774519	         -7.96788613	         47.09543964	        -15.65732091	         22.69456135	        143.30068564	         59.72451037	        -19.16112600	         10.51078667	        -72.24268504	          3.78335035	        -44.82585712	         53.98815307	         63.57183757	          1.50803162	         25.29639091	
          0.55753198	        -22.37217495	         10.53891245	         -4.92371561	         -0.22498912	          0.88057733	          0.35241791	        -10.23175538	        -13.04149537	         -2.12239702	        -33.58665673	        -41.45068545	        -16.61628704	         -5.87087696	         84.00710229	          1.33817584	        -10.22847501	        -81.32049577	          6.47490179	        -13.83852506	          7.23302584	        -17.49846998	        -22.62438603	         -8.08504665	         44.88021967	        -16.24228587	         21.94944640	        143.60168208	         59.56609070	        -19.31988387	         10.59901740	        -71.25410292	          3.42414308	        -44.68199341	         54.35836401	         63.67976833	          1.54348808	         25.24965686	
          0.55908000	        -22.23524219	         10.28830118	         -4.63514316	         -0.21630483	          0.88169904	          0.35265235	         -9.99300939	        -12.61319727	         -2.47058157	        -34.80382274	        -41.22641840	        -16.57893962	         -5.72701610	         83.32220238	          1.42048870	        -10.11535200	        -80.71582752	          6.43105474	        -13.76740709	          7.25491282	        -17.92825677	        -22.47474775	         -8.12165565	         43.18018855	        -16.63886132	         21.27049467	        143.74644538	         59.45000935	        -19.45665511	         10.67912267	        -70.49708895	          3.08637786	        -44.51245071	         54.66000719	         63.78594210	          1.57223903	         25.21275130	
          0.55908000	        -22.23524219	         10.28830118	         -4.63514316	         -0.21630483	          0.88169904	          0.35265235	         -9.99300939	        -12.61319727	         -2.47058157	        -34.80382274	        -41.22641840	        -16.57893962	         -5.72701610	         83.32220238	          1.42048870	        -10.11535200	        -80.71582752	          6.43105474	        -13.76740709	          7.25491282	        -17.92825677	        -22.47474775	         -8.12165565	         43.18018855	        -16.63886132	         21.27049467	        143.74644538	         59.45000935	        -19.45665511	         10.67912267	        -70.49708895	          3.08637786	        -44.51245071	         54.66000719	         63.78594210	          1.57223903	         25.21275130	
          0.55975602	        -22.17544356	         10.17885907	         -4.50912337	         -0.21251240	          0.88218888	          0.35275473	         -9.88874885	        -12.42615919	         -2.62263400	        -35.33535997	        -41.12848083	        -16.56262997	         -5.66419196	         83.02310612	          1.45643478	        -10.06595111	        -80.45176848	          6.41190670	        -13.73634982	          7.26447087	        -18.11594495	        -22.40940061	         -8.13764282	         42.43778379	        -16.81204610	         20.97399598	        143.80966361	         59.39931654	        -19.51638320	         10.71410469	        -70.16650044	          2.93887555	        -44.43841129	         54.79173497	         63.83230826	          1.58479459	         25.19663462	
          0.56189198	        -21.98209285	          9.84505951	         -4.11478926	         -0.20052469	          0.88372995	          0.35307429	         -9.54215959	        -11.85758278	         -3.10301807	        -37.03436690	        -40.83510512	        -16.50088179	         -5.46010052	         82.06066576	          1.57191742	         -9.91703193	        -79.62559166	          6.34156446	        -13.64745186	          7.29627123	        -18.71938160	        -22.20645086	         -8.16210792	         40.04715873	        -17.33565209	         19.96741305	        143.95827830	         59.24024906	        -19.71735386	         10.83394125	        -69.10032686	          2.43236294	        -44.16152722	         55.21943652	         63.99137426	          1.62665556	         25.14482640	
